<svg xmlns="http://www.w3.org/2000/svg" xmlns:xlink="http://www.w3.org/1999/xlink" width="500" zoomAndPan="magnify" viewBox="0 0 375 374.999991" height="500" preserveAspectRatio="xMidYMid meet" version="1.0"><defs><g/><clipPath id="9b92a0d7a0"><path d="M 180 99 L 255.679688 99 L 255.679688 175 L 180 175 Z M 180 99 " clip-rule="nonzero"/></clipPath><clipPath id="8fec7d71f2"><rect x="0" width="256" y="0" height="240"/></clipPath><clipPath id="ffe43e9af9"><rect x="0" width="157" y="0" height="94"/></clipPath></defs><g transform="matrix(1, 0, 0, 1, 46, 38)"><g clip-path="url(#8fec7d71f2)"><g fill="#d4af37" fill-opacity="1"><g transform="translate(44.575499, 150.573768)"><g><path d="M -21.515625 31.8125 C -25.453125 31.8125 -29.195312 30.664062 -32.75 28.375 C -36.3125 26.09375 -38.984375 22.664062 -40.765625 18.09375 C -41.398438 16.445312 -41.8125 14.703125 -42 12.859375 C -42.1875 11.015625 -42.28125 9.203125 -42.28125 7.421875 C -42.28125 5.648438 -41.960938 4.765625 -41.328125 4.765625 C -40.691406 4.765625 -40.375 5.269531 -40.375 6.28125 C -40.375 12.25 -38.878906 16.753906 -35.890625 19.796875 C -32.910156 22.847656 -29.140625 24.375 -24.578125 24.375 C -20.128906 24.375 -15.84375 23.101562 -11.71875 20.5625 C -7.59375 18.03125 -3.75 14.796875 -0.1875 10.859375 C 5.78125 4.378906 11.207031 -3.015625 16.09375 -11.328125 C 20.976562 -19.648438 25.390625 -28.253906 29.328125 -37.140625 C 30.347656 -39.296875 31.804688 -42.753906 33.703125 -47.515625 C 35.609375 -52.285156 37.703125 -57.492188 39.984375 -63.140625 C 42.273438 -68.785156 44.503906 -73.894531 46.671875 -78.46875 C 48.566406 -82.789062 50.179688 -86.21875 51.515625 -88.75 C 52.847656 -91.289062 54.65625 -93.453125 56.9375 -95.234375 C 59.226562 -97.015625 62.660156 -98.789062 67.234375 -100.5625 C 65.203125 -100.4375 63.296875 -100.28125 61.515625 -100.09375 C 59.742188 -99.90625 58.347656 -99.8125 57.328125 -99.8125 C 52.503906 -99.675781 47.679688 -99.351562 42.859375 -98.84375 C 38.035156 -98.34375 33.71875 -97.425781 29.90625 -96.09375 C 26.09375 -94.757812 23.363281 -92.882812 21.71875 -90.46875 C 20.570312 -88.820312 20 -86.921875 20 -84.765625 C 20 -82.597656 20.566406 -80.5 21.703125 -78.46875 C 22.847656 -76.4375 24.3125 -74.976562 26.09375 -74.09375 C 26.34375 -73.84375 26.46875 -73.648438 26.46875 -73.515625 C 26.46875 -73.265625 26.179688 -72.976562 25.609375 -72.65625 C 25.046875 -72.34375 24.445312 -72.25 23.8125 -72.375 C 22.789062 -73.007812 21.519531 -74.054688 20 -75.515625 C 18.476562 -76.984375 17.113281 -78.539062 15.90625 -80.1875 C 14.695312 -81.832031 13.898438 -83.226562 13.515625 -84.375 C 13.015625 -85.894531 12.765625 -87.421875 12.765625 -88.953125 C 12.765625 -91.992188 13.875 -94.46875 16.09375 -96.375 C 18.3125 -98.28125 21.195312 -99.738281 24.75 -100.75 C 28.3125 -101.769531 32.15625 -102.5 36.28125 -102.9375 C 40.40625 -103.382812 44.40625 -103.640625 48.28125 -103.703125 C 52.15625 -103.773438 55.488281 -103.8125 58.28125 -103.8125 L 78.859375 -103.8125 C 79.109375 -103.8125 79.234375 -103.742188 79.234375 -103.609375 C 79.234375 -103.234375 78.820312 -102.695312 78 -102 C 77.175781 -101.300781 76.632812 -100.953125 76.375 -100.953125 C 72.820312 -100.828125 69.679688 -99.492188 66.953125 -96.953125 C 64.222656 -94.410156 61.875 -91.519531 59.90625 -88.28125 C 57.9375 -85.039062 56.316406 -82.085938 55.046875 -79.421875 C 54.285156 -77.898438 53.109375 -75.457031 51.515625 -72.09375 C 49.929688 -68.726562 48.21875 -64.914062 46.375 -60.65625 C 44.539062 -56.40625 42.703125 -52.1875 40.859375 -48 C 39.015625 -43.8125 37.394531 -40.191406 36 -37.140625 C 32.695312 -29.523438 29.613281 -22.445312 26.75 -15.90625 C 23.894531 -9.363281 20.753906 -3.238281 17.328125 2.46875 C 13.898438 8.1875 9.648438 13.773438 4.578125 19.234375 C 1.398438 22.660156 -2.628906 25.613281 -7.515625 28.09375 C -12.410156 30.570312 -17.078125 31.8125 -21.515625 31.8125 Z M -21.515625 31.8125 "/></g></g></g><g fill="#d4af37" fill-opacity="1"><g transform="translate(83.240506, 150.573768)"><g><path d="M 32.375 0.578125 C 31.101562 0.578125 30.023438 0.320312 29.140625 -0.1875 C 28.253906 -0.695312 27.8125 -1.648438 27.8125 -3.046875 C 27.8125 -4.828125 28.253906 -6.859375 29.140625 -9.140625 C 30.023438 -11.429688 31.039062 -13.6875 32.1875 -15.90625 C 33.332031 -18.125 34.347656 -19.929688 35.234375 -21.328125 C 30.796875 -16.628906 26.160156 -12.1875 21.328125 -8 C 18.921875 -5.96875 16.253906 -4.0625 13.328125 -2.28125 C 10.410156 -0.507812 7.300781 0.375 4 0.375 C 2.726562 0.375 1.835938 -0.0351562 1.328125 -0.859375 C 0.828125 -1.679688 0.578125 -2.664062 0.578125 -3.8125 C 0.578125 -4.445312 0.640625 -4.890625 0.765625 -5.140625 C 1.398438 -10.097656 2.984375 -15.242188 5.515625 -20.578125 C 8.054688 -25.910156 11.164062 -30.925781 14.84375 -35.625 C 18.53125 -40.320312 22.28125 -44.128906 26.09375 -47.046875 C 30.40625 -50.347656 35.164062 -52 40.375 -52 L 62.28125 -52 C 62.914062 -52 63.234375 -51.742188 63.234375 -51.234375 C 63.234375 -50.222656 62.660156 -49.71875 61.515625 -49.71875 C 60.242188 -49.71875 58.972656 -48.921875 57.703125 -47.328125 C 56.441406 -45.742188 55.492188 -44.441406 54.859375 -43.421875 C 53.960938 -42.023438 52.5625 -39.675781 50.65625 -36.375 C 48.757812 -33.070312 46.828125 -29.484375 44.859375 -25.609375 C 42.890625 -21.742188 41.207031 -18.160156 39.8125 -14.859375 C 38.414062 -11.554688 37.71875 -9.144531 37.71875 -7.625 C 37.71875 -5.84375 38.601562 -4.953125 40.375 -4.953125 C 42.28125 -4.953125 44.4375 -5.835938 46.84375 -7.609375 C 49.257812 -9.390625 51.707031 -11.582031 54.1875 -14.1875 C 56.664062 -16.789062 58.953125 -19.394531 61.046875 -22 C 63.140625 -24.601562 64.820312 -26.664062 66.09375 -28.1875 C 66.851562 -27.425781 66.820312 -26.378906 66 -25.046875 C 65.175781 -23.710938 64.445312 -22.664062 63.8125 -21.90625 C 61.269531 -18.601562 58.347656 -15.203125 55.046875 -11.703125 C 51.742188 -8.210938 48.15625 -5.289062 44.28125 -2.9375 C 40.40625 -0.59375 36.4375 0.578125 32.375 0.578125 Z M 11.8125 -6.09375 C 13.332031 -6.09375 15.457031 -7.203125 18.1875 -9.421875 C 20.914062 -11.648438 23.867188 -14.445312 27.046875 -17.8125 C 30.222656 -21.175781 33.207031 -24.726562 36 -28.46875 C 38.789062 -32.21875 41.109375 -35.644531 42.953125 -38.75 C 44.796875 -41.863281 45.71875 -44.25 45.71875 -45.90625 C 45.71875 -47.300781 45.300781 -48.25 44.46875 -48.75 C 43.644531 -49.257812 42.597656 -49.515625 41.328125 -49.515625 C 39.296875 -49.515625 37.101562 -48.785156 34.75 -47.328125 C 32.40625 -45.867188 30.535156 -44.441406 29.140625 -43.046875 C 27.617188 -41.648438 25.8125 -39.457031 23.71875 -36.46875 C 21.625 -33.488281 19.554688 -30.21875 17.515625 -26.65625 C 15.484375 -23.101562 13.769531 -19.675781 12.375 -16.375 C 10.976562 -13.070312 10.28125 -10.40625 10.28125 -8.375 C 10.28125 -6.851562 10.789062 -6.09375 11.8125 -6.09375 Z M 11.8125 -6.09375 "/></g></g></g><g fill="#d4af37" fill-opacity="1"><g transform="translate(139.238136, 150.573768)"><g><path d="M 58.09375 24.1875 C 56.1875 24.1875 54.28125 23.644531 52.375 22.5625 C 50.46875 21.488281 48.085938 19.488281 45.234375 16.5625 C 42.378906 13.644531 38.410156 9.332031 33.328125 3.625 C 30.535156 0.320312 27.898438 -2.597656 25.421875 -5.140625 C 22.953125 -7.679688 19.9375 -8.953125 16.375 -8.953125 C 13.582031 -8.953125 10.851562 -8.09375 8.1875 -6.375 C 5.519531 -4.664062 3.804688 -2.414062 3.046875 0.375 C 2.921875 1.144531 2.726562 1.84375 2.46875 2.46875 C 2.21875 3.101562 1.90625 3.738281 1.53125 4.375 C 1.144531 5.007812 0.507812 5.328125 -0.375 5.328125 C -1.007812 5.328125 -1.613281 5.070312 -2.1875 4.5625 C -2.757812 4.0625 -3.046875 3.363281 -3.046875 2.46875 C -3.046875 2.09375 -2.789062 1.394531 -2.28125 0.375 C -1.644531 -0.757812 -0.441406 -2.3125 1.328125 -4.28125 C 3.109375 -6.25 5.078125 -8.375 7.234375 -10.65625 C 9.390625 -12.945312 11.421875 -15.078125 13.328125 -17.046875 C 15.234375 -19.015625 16.757812 -20.441406 17.90625 -21.328125 C 23.113281 -25.773438 27.96875 -30.0625 32.46875 -34.1875 C 36.976562 -38.3125 41.898438 -42.535156 47.234375 -46.859375 C 45.585938 -46.859375 43.300781 -46.789062 40.375 -46.65625 C 37.457031 -46.53125 34.378906 -46.34375 31.140625 -46.09375 C 27.898438 -45.84375 25.070312 -45.460938 22.65625 -44.953125 C 20.25 -44.441406 18.726562 -43.742188 18.09375 -42.859375 C 17.207031 -41.710938 16.316406 -41.140625 15.421875 -41.140625 C 14.921875 -41.140625 14.671875 -41.332031 14.671875 -41.71875 C 14.671875 -42.09375 14.988281 -42.597656 15.625 -43.234375 C 16.757812 -44.503906 17.644531 -45.742188 18.28125 -46.953125 C 18.914062 -48.160156 19.550781 -49.332031 20.1875 -50.46875 C 21.582031 -50.34375 22.976562 -50.25 24.375 -50.1875 C 25.769531 -50.125 27.234375 -50.09375 28.765625 -50.09375 C 32.566406 -50.09375 36.46875 -50.1875 40.46875 -50.375 C 44.46875 -50.570312 48.179688 -50.671875 51.609375 -50.671875 C 52.753906 -50.671875 53.675781 -49.875 54.375 -48.28125 C 55.070312 -46.695312 55.484375 -45.457031 55.609375 -44.5625 C 51.296875 -41.394531 46.472656 -37.9375 41.140625 -34.1875 C 35.804688 -30.445312 30.597656 -26.539062 25.515625 -22.46875 C 23.109375 -20.695312 20.347656 -18.378906 17.234375 -15.515625 C 14.128906 -12.660156 11.492188 -10.347656 9.328125 -8.578125 C 12.890625 -10.347656 16.191406 -11.234375 19.234375 -11.234375 C 23.296875 -11.234375 26.945312 -9.898438 30.1875 -7.234375 C 33.425781 -4.566406 36.953125 -1.394531 40.765625 2.28125 C 44.566406 6.09375 48.375 9.394531 52.1875 12.1875 C 56 14.976562 59.238281 16.375 61.90625 16.375 C 62.789062 16.25 63.675781 16.054688 64.5625 15.796875 C 65.457031 15.546875 66.222656 15.171875 66.859375 14.671875 C 67.867188 13.773438 68.375 12.757812 68.375 11.625 C 68.375 10.226562 67.800781 8.796875 66.65625 7.328125 C 65.519531 5.867188 64.503906 4.882812 63.609375 4.375 C 63.484375 4.25 63.421875 4.125 63.421875 4 C 63.421875 3.613281 63.675781 3.296875 64.1875 3.046875 C 64.695312 2.796875 65.207031 2.796875 65.71875 3.046875 C 67.363281 3.929688 68.691406 5.195312 69.703125 6.84375 C 70.722656 8.5 71.234375 10.34375 71.234375 12.375 C 71.234375 14.40625 70.597656 16.3125 69.328125 18.09375 C 68.179688 19.75 66.59375 21.175781 64.5625 22.375 C 62.53125 23.582031 60.375 24.1875 58.09375 24.1875 Z M 58.09375 24.1875 "/></g></g></g><g clip-path="url(#9b92a0d7a0)"><g fill="#d4af37" fill-opacity="1"><g transform="translate(183.80768, 150.573768)"><g><path d="M 58.09375 24.1875 C 56.1875 24.1875 54.28125 23.644531 52.375 22.5625 C 50.46875 21.488281 48.085938 19.488281 45.234375 16.5625 C 42.378906 13.644531 38.410156 9.332031 33.328125 3.625 C 30.535156 0.320312 27.898438 -2.597656 25.421875 -5.140625 C 22.953125 -7.679688 19.9375 -8.953125 16.375 -8.953125 C 13.582031 -8.953125 10.851562 -8.09375 8.1875 -6.375 C 5.519531 -4.664062 3.804688 -2.414062 3.046875 0.375 C 2.921875 1.144531 2.726562 1.84375 2.46875 2.46875 C 2.21875 3.101562 1.90625 3.738281 1.53125 4.375 C 1.144531 5.007812 0.507812 5.328125 -0.375 5.328125 C -1.007812 5.328125 -1.613281 5.070312 -2.1875 4.5625 C -2.757812 4.0625 -3.046875 3.363281 -3.046875 2.46875 C -3.046875 2.09375 -2.789062 1.394531 -2.28125 0.375 C -1.644531 -0.757812 -0.441406 -2.3125 1.328125 -4.28125 C 3.109375 -6.25 5.078125 -8.375 7.234375 -10.65625 C 9.390625 -12.945312 11.421875 -15.078125 13.328125 -17.046875 C 15.234375 -19.015625 16.757812 -20.441406 17.90625 -21.328125 C 23.113281 -25.773438 27.96875 -30.0625 32.46875 -34.1875 C 36.976562 -38.3125 41.898438 -42.535156 47.234375 -46.859375 C 45.585938 -46.859375 43.300781 -46.789062 40.375 -46.65625 C 37.457031 -46.53125 34.378906 -46.34375 31.140625 -46.09375 C 27.898438 -45.84375 25.070312 -45.460938 22.65625 -44.953125 C 20.25 -44.441406 18.726562 -43.742188 18.09375 -42.859375 C 17.207031 -41.710938 16.316406 -41.140625 15.421875 -41.140625 C 14.921875 -41.140625 14.671875 -41.332031 14.671875 -41.71875 C 14.671875 -42.09375 14.988281 -42.597656 15.625 -43.234375 C 16.757812 -44.503906 17.644531 -45.742188 18.28125 -46.953125 C 18.914062 -48.160156 19.550781 -49.332031 20.1875 -50.46875 C 21.582031 -50.34375 22.976562 -50.25 24.375 -50.1875 C 25.769531 -50.125 27.234375 -50.09375 28.765625 -50.09375 C 32.566406 -50.09375 36.46875 -50.1875 40.46875 -50.375 C 44.46875 -50.570312 48.179688 -50.671875 51.609375 -50.671875 C 52.753906 -50.671875 53.675781 -49.875 54.375 -48.28125 C 55.070312 -46.695312 55.484375 -45.457031 55.609375 -44.5625 C 51.296875 -41.394531 46.472656 -37.9375 41.140625 -34.1875 C 35.804688 -30.445312 30.597656 -26.539062 25.515625 -22.46875 C 23.109375 -20.695312 20.347656 -18.378906 17.234375 -15.515625 C 14.128906 -12.660156 11.492188 -10.347656 9.328125 -8.578125 C 12.890625 -10.347656 16.191406 -11.234375 19.234375 -11.234375 C 23.296875 -11.234375 26.945312 -9.898438 30.1875 -7.234375 C 33.425781 -4.566406 36.953125 -1.394531 40.765625 2.28125 C 44.566406 6.09375 48.375 9.394531 52.1875 12.1875 C 56 14.976562 59.238281 16.375 61.90625 16.375 C 62.789062 16.25 63.675781 16.054688 64.5625 15.796875 C 65.457031 15.546875 66.222656 15.171875 66.859375 14.671875 C 67.867188 13.773438 68.375 12.757812 68.375 11.625 C 68.375 10.226562 67.800781 8.796875 66.65625 7.328125 C 65.519531 5.867188 64.503906 4.882812 63.609375 4.375 C 63.484375 4.25 63.421875 4.125 63.421875 4 C 63.421875 3.613281 63.675781 3.296875 64.1875 3.046875 C 64.695312 2.796875 65.207031 2.796875 65.71875 3.046875 C 67.363281 3.929688 68.691406 5.195312 69.703125 6.84375 C 70.722656 8.5 71.234375 10.34375 71.234375 12.375 C 71.234375 14.40625 70.597656 16.3125 69.328125 18.09375 C 68.179688 19.75 66.59375 21.175781 64.5625 22.375 C 62.53125 23.582031 60.375 24.1875 58.09375 24.1875 Z M 58.09375 24.1875 "/></g></g></g></g></g></g><g transform="matrix(1, 0, 0, 1, 146, 214)"><g clip-path="url(#ffe43e9af9)"><g fill="#cc0000" fill-opacity="1"><g transform="translate(2.43304, 70.40953)"><g><path d="M 25.1875 -48.96875 C 25.1875 -46.789062 25.921875 -44.9375 27.390625 -43.40625 C 28.859375 -41.875 31.367188 -40.578125 34.921875 -39.515625 C 35.109375 -39.390625 35.125 -39.1875 34.96875 -38.90625 C 34.8125 -38.625 34.578125 -38.328125 34.265625 -38.015625 C 33.953125 -37.703125 33.59375 -37.421875 33.1875 -37.171875 C 32.789062 -36.921875 32.46875 -36.765625 32.21875 -36.703125 C 25.21875 -37.015625 19.78125 -35.5 15.90625 -32.15625 C 12.039062 -28.820312 10.109375 -23.785156 10.109375 -17.046875 C 10.109375 -14.859375 10.4375 -12.828125 11.09375 -10.953125 C 11.75 -9.078125 12.6875 -7.453125 13.90625 -6.078125 C 15.125 -4.710938 16.585938 -3.640625 18.296875 -2.859375 C 20.015625 -2.078125 21.96875 -1.6875 24.15625 -1.6875 C 29.28125 -1.6875 33.460938 -2.867188 36.703125 -5.234375 C 39.953125 -7.609375 42.296875 -11.453125 43.734375 -16.765625 C 43.921875 -17.078125 44.125 -17.171875 44.34375 -17.046875 C 44.5625 -16.921875 44.703125 -16.671875 44.765625 -16.296875 C 44.015625 -12.796875 43.125 -9.890625 42.09375 -7.578125 C 41.0625 -5.273438 40.109375 -3.9375 39.234375 -3.5625 C 37.046875 -2.5625 34.40625 -1.71875 31.3125 -1.03125 C 28.226562 -0.34375 25.09375 0 21.90625 0 C 19.289062 0 16.96875 -0.40625 14.9375 -1.21875 C 12.90625 -2.03125 11.203125 -3.125 9.828125 -4.5 C 8.453125 -5.875 7.40625 -7.445312 6.6875 -9.21875 C 5.976562 -11 5.625 -12.859375 5.625 -14.796875 C 5.625 -17.796875 6.164062 -20.617188 7.25 -23.265625 C 8.34375 -25.921875 9.875 -28.273438 11.84375 -30.328125 C 13.8125 -32.390625 16.148438 -34.140625 18.859375 -35.578125 C 21.578125 -37.015625 24.5625 -38.015625 27.8125 -38.578125 C 25.8125 -39.640625 24.25 -40.890625 23.125 -42.328125 C 22 -43.765625 21.4375 -45.320312 21.4375 -47 C 21.4375 -48.75 21.890625 -50.421875 22.796875 -52.015625 C 23.703125 -53.609375 24.953125 -55.015625 26.546875 -56.234375 C 28.140625 -57.453125 30.007812 -58.429688 32.15625 -59.171875 C 34.3125 -59.921875 36.671875 -60.296875 39.234375 -60.296875 C 40.734375 -60.296875 42.203125 -60.15625 43.640625 -59.875 C 45.078125 -59.601562 46.351562 -59.234375 47.46875 -58.765625 C 48.59375 -58.296875 49.484375 -57.765625 50.140625 -57.171875 C 50.796875 -56.578125 51.125 -55.96875 51.125 -55.34375 C 51.125 -54.84375 51.015625 -54.265625 50.796875 -53.609375 C 50.578125 -52.953125 50.328125 -52.28125 50.046875 -51.59375 C 49.765625 -50.90625 49.453125 -50.265625 49.109375 -49.671875 C 48.765625 -49.078125 48.5 -48.65625 48.3125 -48.40625 C 48.1875 -48.28125 48.015625 -48.265625 47.796875 -48.359375 C 47.578125 -48.453125 47.5 -48.625 47.5625 -48.875 C 47.9375 -49.5625 48.21875 -50.328125 48.40625 -51.171875 C 48.59375 -52.015625 48.4375 -52.84375 47.9375 -53.65625 C 47.25 -54.78125 45.9375 -55.90625 44 -57.03125 C 42.070312 -58.15625 39.859375 -58.71875 37.359375 -58.71875 C 35.296875 -58.71875 33.515625 -58.4375 32.015625 -57.875 C 30.523438 -57.3125 29.265625 -56.5625 28.234375 -55.625 C 27.203125 -54.6875 26.4375 -53.640625 25.9375 -52.484375 C 25.4375 -51.328125 25.1875 -50.15625 25.1875 -48.96875 Z M 25.1875 -48.96875 "/></g></g><g transform="translate(48.690953, 70.40953)"><g><path d="M 9.546875 -1.3125 C 8.671875 -0.9375 7.796875 -0.625 6.921875 -0.375 C 6.054688 -0.125 5.28125 0 4.59375 0 C 3.84375 0 3.65625 -0.40625 4.03125 -1.21875 C 5.09375 -3.84375 5.992188 -6.695312 6.734375 -9.78125 C 7.484375 -12.875 7.984375 -15.640625 8.234375 -18.078125 C 8.421875 -20.253906 8.078125 -21.34375 7.203125 -21.34375 C 6.335938 -21.34375 5.1875 -20.628906 3.75 -19.203125 C 3.4375 -19.078125 3.1875 -19.109375 3 -19.296875 C 2.8125 -19.484375 2.8125 -19.703125 3 -19.953125 C 4.4375 -21.378906 5.695312 -22.40625 6.78125 -23.03125 C 7.875 -23.65625 8.890625 -23.96875 9.828125 -23.96875 C 10.578125 -23.96875 11.09375 -23.6875 11.375 -23.125 C 11.65625 -22.5625 11.796875 -21.84375 11.796875 -20.96875 C 11.796875 -19.789062 11.671875 -18.390625 11.421875 -16.765625 C 11.171875 -15.140625 10.84375 -13.4375 10.4375 -11.65625 C 10.03125 -9.875 9.578125 -8.125 9.078125 -6.40625 C 8.578125 -4.695312 8.109375 -3.15625 7.671875 -1.78125 C 9.421875 -2.21875 11.171875 -3.03125 12.921875 -4.21875 C 14.671875 -5.40625 16.234375 -6.773438 17.609375 -8.328125 C 18.984375 -9.890625 20.085938 -11.59375 20.921875 -13.4375 C 21.765625 -15.28125 22.1875 -17.140625 22.1875 -19.015625 C 22.1875 -20.628906 21.65625 -21.4375 20.59375 -21.4375 C 19.726562 -21.4375 18.953125 -20.941406 18.265625 -19.953125 C 18.078125 -19.828125 17.921875 -19.851562 17.796875 -20.03125 C 17.671875 -20.21875 17.640625 -20.40625 17.703125 -20.59375 C 18.203125 -21.40625 18.898438 -22.171875 19.796875 -22.890625 C 20.703125 -23.609375 21.59375 -23.96875 22.46875 -23.96875 C 23.15625 -23.96875 23.734375 -23.65625 24.203125 -23.03125 C 24.671875 -22.40625 24.90625 -21.46875 24.90625 -20.21875 C 24.90625 -18.414062 24.515625 -16.609375 23.734375 -14.796875 C 22.953125 -12.984375 21.875 -11.234375 20.5 -9.546875 C 19.132812 -7.859375 17.515625 -6.296875 15.640625 -4.859375 C 13.765625 -3.429688 11.734375 -2.25 9.546875 -1.3125 Z M 9.546875 -1.3125 "/></g></g></g><g fill="#cc0000" fill-opacity="1"><g transform="translate(74.06725, 70.40953)"><g><path d="M 19.296875 -19.859375 C 19.296875 -18.984375 18.953125 -18.171875 18.265625 -17.421875 C 17.578125 -16.671875 16.640625 -16 15.453125 -15.40625 C 14.265625 -14.8125 12.90625 -14.265625 11.375 -13.765625 C 9.84375 -13.265625 8.238281 -12.796875 6.5625 -12.359375 C 6.5 -11.671875 6.453125 -10.984375 6.421875 -10.296875 C 6.390625 -9.609375 6.375 -8.859375 6.375 -8.046875 C 6.375 -6.492188 6.710938 -5.1875 7.390625 -4.125 C 8.078125 -3.0625 9.046875 -2.53125 10.296875 -2.53125 C 11.546875 -2.53125 12.71875 -2.84375 13.8125 -3.46875 C 14.90625 -4.09375 15.890625 -4.9375 16.765625 -6 C 17.015625 -6.125 17.203125 -6.09375 17.328125 -5.90625 C 17.453125 -5.71875 17.453125 -5.5 17.328125 -5.25 C 16.265625 -3.8125 14.9375 -2.578125 13.34375 -1.546875 C 11.75 -0.515625 10.078125 0 8.328125 0 C 6.710938 0 5.390625 -0.53125 4.359375 -1.59375 C 3.328125 -2.65625 2.8125 -4.21875 2.8125 -6.28125 C 2.8125 -8.144531 3.15625 -10.125 3.84375 -12.21875 C 4.53125 -14.3125 5.429688 -16.226562 6.546875 -17.96875 C 7.671875 -19.71875 8.96875 -21.15625 10.4375 -22.28125 C 11.90625 -23.40625 13.453125 -23.96875 15.078125 -23.96875 C 16.265625 -23.96875 17.265625 -23.546875 18.078125 -22.703125 C 18.890625 -21.859375 19.296875 -20.910156 19.296875 -19.859375 Z M 13.109375 -21.53125 C 11.671875 -21.53125 10.390625 -20.90625 9.265625 -19.65625 C 8.140625 -18.414062 7.328125 -16.453125 6.828125 -13.765625 C 9.828125 -14.203125 12.03125 -14.84375 13.4375 -15.6875 C 14.84375 -16.53125 15.546875 -17.484375 15.546875 -18.546875 C 15.546875 -19.421875 15.328125 -20.132812 14.890625 -20.6875 C 14.453125 -21.25 13.859375 -21.53125 13.109375 -21.53125 Z M 13.109375 -21.53125 "/></g></g></g><g fill="#cc0000" fill-opacity="1"><g transform="translate(93.356979, 70.40953)"><g><path d="M 26.40625 -6 C 26.59375 -6.125 26.78125 -6.125 26.96875 -6 C 27.15625 -5.875 27.21875 -5.6875 27.15625 -5.4375 C 26.09375 -4 24.921875 -2.734375 23.640625 -1.640625 C 22.359375 -0.546875 21.160156 0 20.046875 0 C 18.109375 0 17.140625 -1.25 17.140625 -3.75 C 17.140625 -5.863281 17.515625 -8.21875 18.265625 -10.8125 C 19.015625 -13.40625 20.039062 -16.015625 21.34375 -18.640625 C 21.59375 -19.078125 21.71875 -19.515625 21.71875 -19.953125 C 21.71875 -20.628906 21.40625 -20.96875 20.78125 -20.96875 C 18.476562 -20.96875 15.9375 -19.375 13.15625 -16.1875 C 10.375 -13.007812 7.800781 -8.019531 5.4375 -1.21875 C 5.3125 -0.84375 4.96875 -0.546875 4.40625 -0.328125 C 3.84375 -0.109375 3.3125 0 2.8125 0 C 2.125 0 1.875 -0.28125 2.0625 -0.84375 C 3.125 -3.53125 4.226562 -6.554688 5.375 -9.921875 C 6.53125 -13.296875 7.546875 -16.640625 8.421875 -19.953125 C 8.671875 -21.128906 8.453125 -21.71875 7.765625 -21.71875 C 7.140625 -21.71875 6.515625 -21.40625 5.890625 -20.78125 C 5.273438 -20.164062 4.625 -19.359375 3.9375 -18.359375 C 3.8125 -18.234375 3.671875 -18.265625 3.515625 -18.453125 C 3.359375 -18.640625 3.3125 -18.828125 3.375 -19.015625 C 4.0625 -20.066406 4.992188 -21.15625 6.171875 -22.28125 C 7.359375 -23.40625 8.640625 -23.96875 10.015625 -23.96875 C 11.578125 -23.96875 12.109375 -22.90625 11.609375 -20.78125 C 11.359375 -19.414062 11.015625 -17.96875 10.578125 -16.4375 C 10.140625 -14.90625 9.671875 -13.390625 9.171875 -11.890625 C 10.046875 -13.578125 11.078125 -15.171875 12.265625 -16.671875 C 13.453125 -18.171875 14.6875 -19.445312 15.96875 -20.5 C 17.25 -21.5625 18.523438 -22.40625 19.796875 -23.03125 C 21.078125 -23.65625 22.28125 -23.96875 23.40625 -23.96875 C 24.15625 -23.96875 24.734375 -23.78125 25.140625 -23.40625 C 25.546875 -23.03125 25.75 -22.59375 25.75 -22.09375 C 25.75 -21.28125 25.5625 -20.472656 25.1875 -19.671875 C 23.875 -17.296875 22.765625 -14.8125 21.859375 -12.21875 C 20.953125 -9.625 20.5 -7.238281 20.5 -5.0625 C 20.5 -3.5 21 -2.71875 22 -2.71875 C 23.3125 -2.71875 24.78125 -3.8125 26.40625 -6 Z M 26.40625 -6 "/></g></g></g><g fill="#cc0000" fill-opacity="1"><g transform="translate(120.606082, 70.40953)"><g><path d="M 19.296875 -23.59375 C 19.609375 -23.46875 19.734375 -23.28125 19.671875 -23.03125 C 19.609375 -22.78125 19.328125 -22.625 18.828125 -22.5625 C 17.828125 -22.5 16.71875 -22.4375 15.5 -22.375 C 14.28125 -22.3125 13.046875 -22.21875 11.796875 -22.09375 C 10.546875 -18.976562 9.515625 -15.984375 8.703125 -13.109375 C 7.890625 -10.234375 7.484375 -7.863281 7.484375 -6 C 7.484375 -3.875 8.296875 -2.8125 9.921875 -2.8125 C 11.546875 -2.8125 13.328125 -4.242188 15.265625 -7.109375 C 15.453125 -7.234375 15.640625 -7.21875 15.828125 -7.0625 C 16.015625 -6.90625 16.078125 -6.675781 16.015625 -6.375 C 15.453125 -5.5 14.8125 -4.671875 14.09375 -3.890625 C 13.375 -3.109375 12.640625 -2.4375 11.890625 -1.875 C 11.140625 -1.3125 10.421875 -0.859375 9.734375 -0.515625 C 9.046875 -0.171875 8.484375 0 8.046875 0 C 6.679688 0 5.671875 -0.421875 5.015625 -1.265625 C 4.359375 -2.109375 4.03125 -3.125 4.03125 -4.3125 C 4.03125 -6.363281 4.46875 -8.953125 5.34375 -12.078125 C 6.21875 -15.203125 7.304688 -18.414062 8.609375 -21.71875 C 7.796875 -21.59375 7.015625 -21.46875 6.265625 -21.34375 C 5.523438 -21.21875 4.8125 -21.09375 4.125 -20.96875 C 3.8125 -21.03125 3.734375 -21.1875 3.890625 -21.4375 C 4.046875 -21.6875 4.328125 -21.9375 4.734375 -22.1875 C 5.140625 -22.4375 5.617188 -22.671875 6.171875 -22.890625 C 6.734375 -23.109375 7.265625 -23.21875 7.765625 -23.21875 C 8.078125 -23.28125 8.34375 -23.3125 8.5625 -23.3125 C 8.78125 -23.3125 9.015625 -23.3125 9.265625 -23.3125 C 10.140625 -25.25 11.015625 -27.109375 11.890625 -28.890625 C 12.765625 -30.671875 13.640625 -32.304688 14.515625 -33.796875 C 14.890625 -34.171875 15.3125 -34.5 15.78125 -34.78125 C 16.25 -35.0625 16.703125 -35.25 17.140625 -35.34375 C 17.578125 -35.4375 17.921875 -35.46875 18.171875 -35.4375 C 18.421875 -35.40625 18.515625 -35.296875 18.453125 -35.109375 C 17.390625 -33.492188 16.34375 -31.6875 15.3125 -29.6875 C 14.28125 -27.6875 13.296875 -25.625 12.359375 -23.5 C 13.484375 -23.5 14.609375 -23.515625 15.734375 -23.546875 C 16.859375 -23.578125 18.046875 -23.59375 19.296875 -23.59375 Z M 19.296875 -23.59375 "/></g></g></g><g fill="#cc0000" fill-opacity="1"><g transform="translate(136.618443, 70.40953)"><g><path d="M 13.015625 -23.96875 C 14.265625 -23.96875 15.3125 -23.765625 16.15625 -23.359375 C 17 -22.953125 17.421875 -22.5 17.421875 -22 C 17.421875 -21.3125 17.28125 -20.53125 17 -19.65625 C 16.71875 -18.789062 16.421875 -18.078125 16.109375 -17.515625 C 15.984375 -17.390625 15.8125 -17.375 15.59375 -17.46875 C 15.375 -17.5625 15.296875 -17.703125 15.359375 -17.890625 C 15.546875 -18.328125 15.671875 -18.820312 15.734375 -19.375 C 15.796875 -19.9375 15.765625 -20.4375 15.640625 -20.875 C 15.328125 -22.125 14.453125 -22.75 13.015625 -22.75 C 11.953125 -22.75 11.09375 -22.4375 10.4375 -21.8125 C 9.78125 -21.1875 9.453125 -20.253906 9.453125 -19.015625 C 9.453125 -18.015625 9.71875 -17.0625 10.25 -16.15625 C 10.78125 -15.25 11.375 -14.34375 12.03125 -13.4375 C 12.6875 -12.53125 13.28125 -11.5625 13.8125 -10.53125 C 14.34375 -9.5 14.609375 -8.359375 14.609375 -7.109375 C 14.609375 -5.117188 13.90625 -3.4375 12.5 -2.0625 C 11.09375 -0.6875 8.988281 0 6.1875 0 C 4.25 0 2.65625 -0.34375 1.40625 -1.03125 C 0.15625 -1.71875 -0.46875 -2.4375 -0.46875 -3.1875 C -0.46875 -3.75 -0.125 -4.585938 0.5625 -5.703125 C 1.25 -6.828125 2.03125 -7.734375 2.90625 -8.421875 C 3.09375 -8.546875 3.265625 -8.515625 3.421875 -8.328125 C 3.578125 -8.140625 3.59375 -7.953125 3.46875 -7.765625 C 2.96875 -7.265625 2.59375 -6.6875 2.34375 -6.03125 C 2.09375 -5.382812 2.03125 -4.8125 2.15625 -4.3125 C 2.34375 -3.25 2.828125 -2.453125 3.609375 -1.921875 C 4.390625 -1.390625 5.3125 -1.125 6.375 -1.125 C 7.988281 -1.125 9.25 -1.5625 10.15625 -2.4375 C 11.0625 -3.3125 11.515625 -4.4375 11.515625 -5.8125 C 11.515625 -6.988281 11.234375 -8.09375 10.671875 -9.125 C 10.109375 -10.15625 9.5 -11.15625 8.84375 -12.125 C 8.1875 -13.09375 7.59375 -14.0625 7.0625 -15.03125 C 6.539062 -16 6.28125 -17.046875 6.28125 -18.171875 C 6.28125 -19.785156 6.882812 -21.15625 8.09375 -22.28125 C 9.3125 -23.40625 10.953125 -23.96875 13.015625 -23.96875 Z M 13.015625 -23.96875 "/></g></g></g></g></g></svg>